<svg width="32" height="32" viewBox="0 0 32 32" fill="none" xmlns="http://www.w3.org/2000/svg">
<path d="M11.5631 26H4.78864C4.35489 26 4 25.6451 4 25.2113V18.4369C4 14.2571 7.38328 10.8738 11.5631 10.8738C15.7429 10.8738 19.1262 14.2571 19.1262 18.4369C19.1262 22.6167 15.7429 26 11.5631 26Z" fill="#DDDDDD"/>
<path d="M22.3911 6H22.2255C19.3785 6 17.052 8.18454 16.8154 10.9685C18.6766 12.2855 20.0252 14.265 20.5063 16.5757C21.0426 16.7571 21.6183 16.8596 22.2255 16.8596H26.8627C27.2965 16.8596 27.6514 16.5126 27.6514 16.071C27.6514 15.0379 27.6514 13.1372 27.6514 11.2681C27.6514 8.35804 25.2933 6 22.3833 6H22.3911Z" fill="#DDDDDD"/>
</svg>
