<svg width="32" height="32" viewBox="0 0 32 32" fill="none" xmlns="http://www.w3.org/2000/svg">
<path d="M7.78864 6H14.0978C14.5315 6 14.8864 6.35489 14.8864 6.78864V13.8864H7V6.78864C7 6.35489 7.35489 6 7.78864 6Z" fill="#666666"/>
<path d="M17.2524 6H23.5615C23.9953 6 24.3502 6.35489 24.3502 6.78864V13.8864H16.4637V6.78864C16.4637 6.35489 16.8186 6 17.2524 6Z" fill="#666666"/>
<path d="M14.8864 26L7.45741 22.5773C7.18139 22.4511 7 22.1672 7 21.8596V15.4637H14.8864V26Z" fill="#666666"/>
<path d="M23.8928 22.5773L16.4637 26V15.4637H24.3502V21.8596C24.3502 22.1672 24.1688 22.4432 23.8928 22.5773Z" fill="#666666"/>
</svg>
