<svg width="26" height="27" viewBox="0 0 26 27" fill="none" xmlns="http://www.w3.org/2000/svg">
<path d="M15.4883 18.958L15.2238 18.2562L15.4883 18.958ZM16.3029 18.964L16.6001 18.2754L16.3029 18.964ZM17.7964 19.6085L17.4992 20.2971L17.7964 19.6085ZM19.1774 18.5165L18.4388 18.6469L19.1774 18.5165ZM18.9412 15.8995L18.2677 15.5695L18.9412 15.8995ZM18.8347 16.5751L19.5733 16.4448L18.8347 16.5751ZM18.75 13.5C18.75 14.2357 18.5784 14.9352 18.2677 15.5695L19.6147 16.2294C20.0223 15.3974 20.25 14.4729 20.25 13.5H18.75ZM13 8.34375C16.2449 8.34375 18.75 10.7183 18.75 13.5H20.25C20.25 9.75787 16.9348 6.84375 13 6.84375V8.34375ZM7.25 13.5C7.25 10.7183 9.75514 8.34375 13 8.34375V6.84375C9.06516 6.84375 5.75 9.75787 5.75 13.5H7.25ZM13 18.6562C9.75514 18.6562 7.25 16.2817 7.25 13.5H5.75C5.75 17.2421 9.06516 20.1562 13 20.1562V18.6562ZM15.2238 18.2562C14.5416 18.5133 13.7907 18.6562 13 18.6562V20.1562C13.9721 20.1562 14.9021 19.9804 15.7528 19.6598L15.2238 18.2562ZM18.0936 18.9199L16.6001 18.2754L16.0057 19.6526L17.4992 20.2971L18.0936 18.9199ZM18.0961 16.7055L18.4388 18.6469L19.916 18.3861L19.5733 16.4448L18.0961 16.7055ZM15.7528 19.6598C15.8593 19.6197 15.9484 19.6279 16.0057 19.6526L16.6001 18.2754C16.1401 18.0769 15.6445 18.0977 15.2238 18.2562L15.7528 19.6598ZM17.4992 20.2971C18.7783 20.8491 20.1582 19.758 19.916 18.3861L18.4388 18.6469C18.4734 18.8429 18.2763 18.9988 18.0936 18.9199L17.4992 20.2971ZM18.2677 15.5695C18.1063 15.8989 18.0237 16.2953 18.0961 16.7055L19.5733 16.4448C19.5644 16.3947 19.5705 16.3198 19.6147 16.2294L18.2677 15.5695Z" fill="#191919"/>
</svg>
