<svg width="26" height="26" viewBox="0 0 26 26" fill="none" xmlns="http://www.w3.org/2000/svg">
<path d="M9.95312 7.88125C9.95312 7.51492 10.0986 7.16359 10.3577 6.90456C10.6167 6.64552 10.968 6.5 11.3344 6.5H15.4781C15.8445 6.5 16.1958 6.64552 16.4548 6.90456C16.7139 7.16359 16.8594 7.51492 16.8594 7.88125V9.2625H19.6219C19.805 9.2625 19.9807 9.33526 20.1102 9.46478C20.2397 9.5943 20.3125 9.76996 20.3125 9.95312C20.3125 10.1363 20.2397 10.312 20.1102 10.4415C19.9807 10.571 19.805 10.6438 19.6219 10.6438H18.8836L18.2848 19.0293C18.26 19.3778 18.1041 19.7039 17.8484 19.942C17.5928 20.1801 17.2564 20.3125 16.907 20.3125H9.90478C9.55542 20.3125 9.21904 20.1801 8.96338 19.942C8.70772 19.7039 8.55179 19.3778 8.52698 19.0293L7.92959 10.6438H7.19063C7.00746 10.6438 6.8318 10.571 6.70228 10.4415C6.57276 10.312 6.5 10.1363 6.5 9.95312C6.5 9.76996 6.57276 9.5943 6.70228 9.46478C6.8318 9.33526 7.00746 9.2625 7.19063 9.2625H9.95312V7.88125ZM11.3344 9.2625H15.4781V7.88125H11.3344V9.2625ZM9.31361 10.6438L9.90547 18.9313H16.9077L17.4996 10.6438H9.31361ZM12.025 12.025C12.2082 12.025 12.3838 12.0978 12.5133 12.2273C12.6429 12.3568 12.7156 12.5325 12.7156 12.7156V16.8594C12.7156 17.0425 12.6429 17.2182 12.5133 17.3477C12.3838 17.4772 12.2082 17.55 12.025 17.55C11.8418 17.55 11.6662 17.4772 11.5367 17.3477C11.4071 17.2182 11.3344 17.0425 11.3344 16.8594V12.7156C11.3344 12.5325 11.4071 12.3568 11.5367 12.2273C11.6662 12.0978 11.8418 12.025 12.025 12.025ZM14.7875 12.025C14.9707 12.025 15.1463 12.0978 15.2758 12.2273C15.4054 12.3568 15.4781 12.5325 15.4781 12.7156V16.8594C15.4781 17.0425 15.4054 17.2182 15.2758 17.3477C15.1463 17.4772 14.9707 17.55 14.7875 17.55C14.6043 17.55 14.4287 17.4772 14.2992 17.3477C14.1696 17.2182 14.0969 17.0425 14.0969 16.8594V12.7156C14.0969 12.5325 14.1696 12.3568 14.2992 12.2273C14.4287 12.0978 14.6043 12.025 14.7875 12.025Z" fill="#0D0D0D"/>
</svg>
