<svg width="22" height="22" viewBox="0 0 22 22" fill="none" xmlns="http://www.w3.org/2000/svg">
<path d="M7 9C8.10457 9 9 8.10457 9 7C9 5.89543 8.10457 5 7 5C5.89543 5 5 5.89543 5 7C5 8.10457 5.89543 9 7 9Z" stroke="#666666" stroke-width="1.2" stroke-linecap="round" stroke-linejoin="round"/>
<path d="M18.78 1H3.22C1.99393 1 1 1.99393 1 3.22V18.78C1 20.0061 1.99393 21 3.22 21H18.78C20.0061 21 21 20.0061 21 18.78V3.22C21 1.99393 20.0061 1 18.78 1Z" stroke="#666666" stroke-width="1.2" stroke-linecap="round" stroke-linejoin="round"/>
<path d="M1 17.7199L5.66 13.0599C6.05 12.6699 6.68 12.6699 7.07 13.0599L8.51 14.4999C8.9 14.8899 9.53 14.8899 9.92 14.4999L14.25 10.1699C14.64 9.77994 15.27 9.77994 15.66 10.1699L21.04 15.5499" stroke="#666666" stroke-width="1.2" stroke-linecap="round" stroke-linejoin="round"/>
</svg>
