<svg width="26" height="26" viewBox="0 0 26 26" fill="none" xmlns="http://www.w3.org/2000/svg">
<mask id="path-1-inside-1_235_508" fill="white">
<path fill-rule="evenodd" clip-rule="evenodd" d="M19.1979 16.6189C18.0334 18.6801 15.8221 20.0716 13.2858 20.0716C9.5381 20.0716 6.5 17.0335 6.5 13.2858C6.5 9.5381 9.5381 6.5 13.2858 6.5C16.0623 6.5 18.4493 8.16753 19.5 10.5557L13.2858 13.6629L19.1979 16.6189ZM20.0716 13.2806C20.0716 13.2824 20.0716 13.2841 20.0716 13.2858C20.0716 13.2875 20.0716 13.2892 20.0716 13.2909V13.2806Z"/>
</mask>
<path d="M19.1979 16.6189L20.5039 17.3568L21.2801 15.983L19.8687 15.2773L19.1979 16.6189ZM19.5 10.5557L20.1709 11.8974L21.4481 11.2588L20.873 9.95168L19.5 10.5557ZM13.2858 13.6629L12.615 12.3212L9.93168 13.6629L12.615 15.0045L13.2858 13.6629ZM17.8919 15.8811C16.9826 17.4905 15.2595 18.5716 13.2858 18.5716V21.5716C16.3847 21.5716 19.0841 19.8697 20.5039 17.3568L17.8919 15.8811ZM13.2858 18.5716C10.3665 18.5716 8 16.205 8 13.2858H5C5 17.8619 8.70967 21.5716 13.2858 21.5716V18.5716ZM8 13.2858C8 10.3665 10.3665 8 13.2858 8V5C8.70967 5 5 8.70967 5 13.2858H8ZM13.2858 8C15.4462 8 17.3072 9.29633 18.127 11.1598L20.873 9.95168C19.5915 7.03873 16.6784 5 13.2858 5V8ZM13.9566 15.0045L20.1709 11.8974L18.8292 9.2141L12.615 12.3212L13.9566 15.0045ZM19.8687 15.2773L13.9566 12.3212L12.615 15.0045L18.5271 17.9606L19.8687 15.2773ZM18.5716 13.2806C18.5716 13.282 18.5716 13.2833 18.5716 13.284C18.5716 13.285 18.5716 13.2854 18.5716 13.2858H21.5716C21.5716 13.2844 21.5716 13.2832 21.5716 13.2824C21.5716 13.2814 21.5716 13.281 21.5716 13.2806H18.5716ZM18.5716 13.2858C18.5716 13.2862 18.5716 13.2866 18.5716 13.2875C18.5716 13.2883 18.5716 13.2896 18.5716 13.2909H21.5716C21.5716 13.2906 21.5716 13.2901 21.5716 13.2892C21.5716 13.2884 21.5716 13.2871 21.5716 13.2858H18.5716ZM18.5716 13.2806V13.2909H21.5716V13.2806H18.5716Z" fill="black" mask="url(#path-1-inside-1_235_508)"/>
</svg>
