<svg width="26" height="26" viewBox="0 0 26 26" fill="none" xmlns="http://www.w3.org/2000/svg">
<path d="M18.9986 18.7739H7.81387C7.53697 18.7739 7.3125 18.986 7.3125 19.2475V20.5999C7.3125 20.8615 7.53697 21.0735 7.81387 21.0735H18.9986C19.2755 21.0735 19.5 20.8615 19.5 20.5999V19.2475C19.5 18.986 19.2755 18.7739 18.9986 18.7739Z" stroke="black" stroke-width="1.5" stroke-miterlimit="10"/>
<path d="M13.3984 11.1045C11.152 11.1045 9.33063 12.825 9.33063 14.9471V18.7599H17.4661V14.9471C17.4661 12.825 15.6448 11.1045 13.3984 11.1045Z" stroke="black" stroke-width="1.5" stroke-miterlimit="10"/>
<path d="M13.4062 5.6875V9.07292" stroke="black" stroke-width="1.5" stroke-miterlimit="10" stroke-linecap="round"/>
<path d="M7.98956 7.71875L10.1403 9.75" stroke="black" stroke-width="1.5" stroke-miterlimit="10" stroke-linecap="round"/>
<path d="M19.5 7.71875L16.6323 9.75" stroke="black" stroke-width="1.5" stroke-miterlimit="10" stroke-linecap="round"/>
</svg>
