<svg width="20" height="18" viewBox="0 0 20 18" fill="none" xmlns="http://www.w3.org/2000/svg">
<path d="M14.404 15.9041L14.6919 15.2115L14.404 15.9041ZM17.3006 17.1078L17.0127 17.8004L17.3006 17.1078ZM18.6679 16.004L17.9302 16.1393L18.6679 16.004ZM18.1747 11.9874L18.8379 12.3375L18.1747 11.9874ZM18.0591 12.6829L17.3213 12.8181L18.0591 12.6829ZM18.2498 8.68896C18.2498 9.7389 17.9868 10.7366 17.5114 11.6372L18.8379 12.3375C19.4218 11.2315 19.7498 9.9945 19.7498 8.68896H18.2498ZM9.99976 1.56396C14.6533 1.56396 18.2498 4.84488 18.2498 8.68896H19.7498C19.7498 3.83457 15.2873 0.0639648 9.99976 0.0639648V1.56396ZM1.74976 8.68896C1.74976 4.84488 5.3462 1.56396 9.99976 1.56396V0.0639648C4.71218 0.0639648 0.249756 3.83457 0.249756 8.68896H1.74976ZM9.99976 15.814C5.3462 15.814 1.74976 12.5331 1.74976 8.68896H0.249756C0.249756 13.5434 4.71218 17.314 9.99976 17.314V15.814ZM13.3476 15.2021C12.3267 15.5947 11.1944 15.814 9.99976 15.814V17.314C11.3782 17.314 12.693 17.0609 13.8859 16.6022L13.3476 15.2021ZM17.5884 16.4152L14.6919 15.2115L14.1162 16.5966L17.0127 17.8004L17.5884 16.4152ZM17.3213 12.8181L17.9302 16.1393L19.4056 15.8688L18.7968 12.5476L17.3213 12.8181ZM13.8859 16.6022C13.9768 16.5673 14.0586 16.5727 14.1162 16.5966L14.6919 15.2115C14.2469 15.0266 13.7646 15.0418 13.3476 15.2021L13.8859 16.6022ZM17.0127 17.8004C18.2941 18.3329 19.6559 17.2336 19.4056 15.8688L17.9302 16.1393C17.966 16.3343 17.7714 16.4913 17.5884 16.4152L17.0127 17.8004ZM17.5114 11.6372C17.3294 11.982 17.244 12.3961 17.3213 12.8181L18.7968 12.5476C18.787 12.4943 18.7943 12.4201 18.8379 12.3375L17.5114 11.6372Z" fill="white"/>
</svg>
