<svg width="20" height="22" viewBox="0 0 20 22" fill="none" xmlns="http://www.w3.org/2000/svg">
<path fill-rule="evenodd" clip-rule="evenodd" d="M6.31219 16.6992C6.14243 16.6992 6 16.8302 6 17V17C6 19.2091 7.79086 21 10 21C12.2091 21 14 19.2091 14 17V17C14 16.8302 13.8576 16.6992 13.6878 16.6992H6.31219Z" stroke="white" stroke-width="1.5"/>
<path d="M3.18646 6.73243L3.9254 6.86072L3.18646 6.73243ZM16.8133 6.73243L17.5522 6.60414L16.8133 6.73243ZM18.4478 12.6328L19.0318 12.1623L18.4478 12.6328ZM17.5704 11.0934L16.8315 11.2217L17.5704 11.0934ZM3.9254 6.86072C4.43825 3.90679 7.00175 1.75 9.99987 1.75V0.25C6.27231 0.25 3.08513 2.93152 2.44751 6.60414L3.9254 6.86072ZM3.16822 11.222L3.9254 6.86072L2.44751 6.60414L1.69033 10.9654L3.16822 11.222ZM1.75 14.2002C1.75 13.7841 1.89428 13.4037 2.13619 13.1035L0.968096 12.1624C0.519211 12.7196 0.25 13.4295 0.25 14.2002H1.75ZM3.5 15.9502C2.5335 15.9502 1.75 15.1667 1.75 14.2002H0.25C0.25 15.9951 1.70507 17.4502 3.5 17.4502V15.9502ZM16.5 15.9502H3.5V17.4502H16.5V15.9502ZM18.25 14.2002C18.25 15.1667 17.4665 15.9502 16.5 15.9502V17.4502C18.2949 17.4502 19.75 15.9951 19.75 14.2002H18.25ZM17.8637 13.1034C18.1057 13.4037 18.25 13.784 18.25 14.2002H19.75C19.75 13.4294 19.4807 12.7195 19.0318 12.1623L17.8637 13.1034ZM16.0743 6.86072L16.8315 11.2217L18.3094 10.9651L17.5522 6.60414L16.0743 6.86072ZM9.99987 1.75C12.998 1.75 15.5615 3.90678 16.0743 6.86072L17.5522 6.60414C16.9146 2.93152 13.7274 0.25 9.99987 0.25V1.75ZM19.0318 12.1623C18.6234 11.6555 18.3721 11.3266 18.3094 10.9651L16.8315 11.2217C16.9734 12.039 17.5214 12.6785 17.8637 13.1034L19.0318 12.1623ZM1.69033 10.9654C1.62758 11.3268 1.37634 11.6557 0.968096 12.1624L2.13619 13.1035C2.47846 12.6786 3.02634 12.0392 3.16822 11.222L1.69033 10.9654Z" fill="white"/>
</svg>
