<svg width="21" height="22" viewBox="0 0 21 22" fill="none" xmlns="http://www.w3.org/2000/svg">
<path d="M5.21421 3.69873L4.46528 3.65873V3.65873L5.21421 3.69873ZM8.92421 2.162L8.42292 2.71986L8.92421 2.162ZM3.11048 5.80247L3.15048 6.5514H3.15048L3.11048 5.80247ZM1.57374 9.51247L1.01589 10.0138H1.01589L1.57374 9.51247ZM1.57374 12.4876L2.1316 12.9889H2.1316L1.57374 12.4876ZM3.11048 16.1976L3.07048 16.9465H3.07048L3.11048 16.1976ZM5.21421 18.3013L4.46528 18.3413L5.21421 18.3013ZM8.92421 19.8381L9.4255 20.3959L9.42551 20.3959L8.92421 19.8381ZM11.8993 19.8381L12.4006 19.2802L11.8993 19.8381ZM15.6093 18.3013L16.3583 18.3413L15.6093 18.3013ZM17.7131 16.1976L17.6731 15.4487L17.7131 16.1976ZM19.2498 12.4876L19.8077 11.9863H19.8077L19.2498 12.4876ZM19.2498 9.51247L19.8077 10.0138L19.8077 10.0138L19.2498 9.51247ZM17.7131 5.80247L17.6731 6.5514L17.7131 5.80247ZM15.6093 3.69873L16.3583 3.65873V3.65873L15.6093 3.69873ZM11.8993 2.162L12.4006 2.71986V2.71986L11.8993 2.162ZM5.96315 3.73873C6.02928 2.50049 7.50059 1.89105 8.42292 2.71986L9.4255 1.60414C7.56559 -0.0671785 4.59864 1.16177 4.46528 3.65873L5.96315 3.73873ZM3.15048 6.5514C4.66901 6.4703 5.88205 5.25727 5.96315 3.73873L4.46528 3.65873C4.42506 4.41177 3.82352 5.01332 3.07048 5.05354L3.15048 6.5514ZM2.1316 9.01118C1.30279 8.08885 1.91223 6.61753 3.15048 6.5514L3.07048 5.05354C0.573516 5.18689 -0.655435 8.15385 1.01589 10.0138L2.1316 9.01118ZM2.1316 12.9889C3.14802 11.8578 3.14802 10.1423 2.1316 9.01118L1.01589 10.0138C1.51993 10.5747 1.51993 11.4254 1.01589 11.9863L2.1316 12.9889ZM3.15047 15.4487C1.91223 15.3825 1.3028 13.9112 2.1316 12.9889L1.01589 11.9863C-0.655435 13.8462 0.573516 16.8132 3.07048 16.9465L3.15047 15.4487ZM5.96315 18.2613C5.88204 16.7428 4.66901 15.5298 3.15047 15.4487L3.07048 16.9465C3.82352 16.9868 4.42506 17.5883 4.46528 18.3413L5.96315 18.2613ZM8.42292 19.2802C7.50059 20.109 6.02928 19.4996 5.96315 18.2613L4.46528 18.3413C4.59864 20.8383 7.56559 22.0673 9.4255 20.3959L8.42292 19.2802ZM12.4006 19.2802C11.2695 18.2638 9.55403 18.2638 8.42292 19.2802L9.42551 20.3959C9.98642 19.8919 10.8371 19.8919 11.3981 20.3959L12.4006 19.2802ZM14.8604 18.2613C14.7943 19.4996 13.323 20.109 12.4006 19.2802L11.3981 20.3959C13.258 22.0673 16.2249 20.8383 16.3583 18.3413L14.8604 18.2613ZM17.6731 15.4487C16.1546 15.5298 14.9415 16.7428 14.8604 18.2613L16.3583 18.3413C16.3985 17.5883 17 16.9868 17.7531 16.9465L17.6731 15.4487ZM18.692 12.9889C19.5208 13.9112 18.9113 15.3825 17.6731 15.4487L17.7531 16.9465C20.25 16.8132 21.479 13.8462 19.8077 11.9863L18.692 12.9889ZM18.692 9.01118C17.6755 10.1423 17.6755 11.8578 18.692 12.9889L19.8077 11.9863C19.3036 11.4254 19.3036 10.5747 19.8077 10.0138L18.692 9.01118ZM17.6731 6.5514C18.9113 6.61753 19.5208 8.08885 18.692 9.01118L19.8077 10.0138C21.479 8.15384 20.25 5.18689 17.7531 5.05354L17.6731 6.5514ZM14.8604 3.73873C14.9415 5.25727 16.1546 6.4703 17.6731 6.5514L17.7531 5.05354C17 5.01332 16.3985 4.41177 16.3583 3.65873L14.8604 3.73873ZM12.4006 2.71986C13.323 1.89105 14.7943 2.50049 14.8604 3.73873L16.3583 3.65873C16.2249 1.16177 13.258 -0.067179 11.3981 1.60414L12.4006 2.71986ZM8.42292 2.71986C9.55403 3.73628 11.2695 3.73628 12.4006 2.71986L11.3981 1.60414C10.8371 2.10818 9.98642 2.10818 9.4255 1.60414L8.42292 2.71986ZM13.6626 11.0002C13.6626 12.7951 12.2075 14.2502 10.4126 14.2502V15.7502C13.0359 15.7502 15.1626 13.6235 15.1626 11.0002H13.6626ZM10.4126 7.75019C12.2075 7.75019 13.6626 9.20526 13.6626 11.0002H15.1626C15.1626 8.37683 13.0359 6.25019 10.4126 6.25019V7.75019ZM7.16256 11.0002C7.16256 9.20526 8.61763 7.75019 10.4126 7.75019V6.25019C7.78921 6.25019 5.66256 8.37683 5.66256 11.0002H7.16256ZM10.4126 14.2502C8.61763 14.2502 7.16256 12.7951 7.16256 11.0002H5.66256C5.66256 13.6235 7.78921 15.7502 10.4126 15.7502V14.2502Z" fill="white"/>
</svg>
